<svg xmlns="http://www.w3.org/2000/svg" version="1.1" xmlns:xlink="http://www.w3.org/1999/xlink" xmlns:svgjs="http://svgjs.dev/svgjs" width="1000" height="1000" viewBox="0 0 1000 1000"><rect width="1000" height="1000" fill="#0a1627"></rect><g transform="matrix(0.7,0,0,0.7,149.57576358045662,282.1265587044535)"><svg viewBox="0 0 396 247" data-background-color="#0a1627" preserveAspectRatio="xMidYMid meet" height="623" width="1000" xmlns="http://www.w3.org/2000/svg" xmlns:xlink="http://www.w3.org/1999/xlink"><defs></defs><g id="tight-bounds" transform="matrix(1,0,0,1,0.2399966788806296,-0.09999999999999432)"><svg viewBox="0 0 395.52 247.2" height="247.2" width="395.52"><g><svg></svg></g><g><svg viewBox="0 0 395.52 247.2" height="247.2" width="395.52"><g><path d="M6.409 51.612c3.593-8.226 8.464-15.435 14.612-21.626 6.191-6.191 13.421-11.083 21.69-14.677 8.226-3.593 17.036-5.39 26.432-5.39h104.361v45.524h-104.361c-3.161 0-6.105 0.584-8.833 1.754-2.771 1.126-5.174 2.728-7.208 4.806-2.078 2.078-3.702 4.481-4.871 7.208-0.733 1.738-1.237 3.553-1.51 5.445l-45.62 0c0.389-8.114 2.158-15.795 5.308-23.044zM177.531 195.588c-3.55 8.226-8.399 15.435-14.547 21.626-6.191 6.191-13.443 11.083-21.756 14.677-8.313 3.593-17.166 5.39-26.561 5.39h-100.985v-45.524h100.985c3.161 0 6.126-0.584 8.897-1.754 2.728-1.126 5.13-2.728 7.208-4.806 2.078-2.078 3.68-4.481 4.806-7.208 0.733-1.738 1.237-3.553 1.51-5.445l45.687 0c-0.384 8.114-2.132 15.795-5.244 23.044zM258.188 55.443l0 19.213-45.524 0v-64.737h90.984c8.356 0 16.387 1.082 24.093 3.247 7.75 2.165 14.98 5.239 21.691 9.222 6.711 3.94 12.837 8.681 18.378 14.222 5.542 5.585 10.304 11.754 14.288 18.509 3.571 6.121 6.412 12.634 8.525 19.537h-49.949c-1.495-2.107-3.165-4.074-5.01-5.899-4.113-4.113-8.919-7.36-14.417-9.742-5.498-2.381-11.365-3.572-17.599-3.572zM258.188 191.757v45.524h-45.524l0-64.737 146.859 0c-2.399 1.866-4.897 3.616-7.494 5.25l25.198 59.487h-48.382l-19.807-45.849z" fill="#fe0039" data-fill-palette-color="tertiary"></path></g><g transform="matrix(1,0,0,1,0,85.71330650701736)"><svg viewBox="0 0 395.52 75.77338698596525" height="75.77338698596525" width="395.52"><g><svg viewBox="0 0 395.52 75.77338698596525" height="75.77338698596525" width="395.52"><g><svg viewBox="0 0 395.52 75.77338698596525" height="75.77338698596525" width="395.52"><g><svg viewBox="0 0 395.52 75.77338698596525" height="75.77338698596525" width="395.52"><g><svg viewBox="0 0 395.52 75.77338698596525" height="75.77338698596525" width="395.52"><g><svg viewBox="0 0 395.52 75.77338698596525" height="75.77338698596525" width="395.52"><g transform="matrix(1,0,0,1,0,0)"><svg width="395.52" viewBox="1.2000000476837158 -37.70000076293945 248.72999572753906 47.65999984741211" height="75.77338698596525" data-palette-color="#fe0039"><path d="M1.2-24.51L1.2-24.51Q1.2-26.68 2.03-28.59 2.86-30.49 4.28-31.92 5.71-33.35 7.62-34.18 9.52-35.01 11.69-35.01L11.69-35.01 27.76-35.01 27.76-28 11.69-28Q10.96-28 10.33-27.73 9.69-27.47 9.22-26.99 8.74-26.51 8.47-25.88 8.2-25.24 8.2-24.51L8.2-24.51Q8.2-23.78 8.47-23.13 8.74-22.49 9.22-22.01 9.69-21.53 10.33-21.26 10.96-21 11.69-21L11.69-21 18.7-21Q20.87-21 22.79-20.18 24.71-19.36 26.14-17.93 27.56-16.5 28.38-14.59 29.2-12.67 29.2-10.5L29.2-10.5Q29.2-8.33 28.38-6.42 27.56-4.52 26.14-3.09 24.71-1.66 22.79-0.83 20.87 0 18.7 0L18.7 0 3.15 0 3.15-7.01 18.7-7.01Q19.43-7.01 20.07-7.28 20.7-7.54 21.18-8.02 21.66-8.5 21.92-9.13 22.19-9.77 22.19-10.5L22.19-10.5Q22.19-11.23 21.92-11.87 21.66-12.5 21.18-12.98 20.7-13.45 20.07-13.72 19.43-13.99 18.7-13.99L18.7-13.99 11.69-13.99Q9.52-13.99 7.62-14.82 5.71-15.65 4.28-17.08 2.86-18.51 2.03-20.42 1.2-22.34 1.2-24.51ZM54.25 0L52.05-3.05Q51.24-2.32 50.33-1.67 49.41-1.03 48.41-0.55 47.41-0.07 46.35 0.21 45.29 0.49 44.19 0.49L44.19 0.49Q41.77 0.49 39.65-0.37 37.52-1.22 35.92-2.8 34.32-4.37 33.41-6.63 32.49-8.89 32.49-11.69L32.49-11.69 32.49-26.15 39.13-26.15 39.13-11.69Q39.13-10.38 39.54-9.34 39.94-8.3 40.62-7.59 41.31-6.88 42.22-6.52 43.14-6.15 44.19-6.15L44.19-6.15Q45.21-6.15 46.13-6.63 47.04-7.1 47.73-7.89 48.41-8.67 48.8-9.66 49.19-10.64 49.19-11.69L49.19-11.69 49.19-26.15 55.86-26.15 55.86 0 54.25 0ZM67.65-1.76L67.65 9.96 60.93 9.96 60.93-26.15 62.54-26.15 65.2-23Q66.11-23.85 67.18-24.61 68.26-25.37 69.42-25.92 70.58-26.46 71.82-26.78 73.07-27.1 74.34-27.1L74.34-27.1Q77.09-27.1 79.52-26.11 81.95-25.12 83.77-23.32 85.59-21.51 86.64-18.96 87.69-16.41 87.69-13.31L87.69-13.31Q87.69-10.08 86.64-7.51 85.59-4.93 83.77-3.14 81.95-1.34 79.52-0.39 77.09 0.56 74.34 0.56L74.34 0.56Q73.46 0.56 72.59 0.37 71.72 0.17 70.88-0.16 70.04-0.49 69.22-0.9 68.4-1.32 67.65-1.76L67.65-1.76ZM81-13.31L81-13.31Q81-14.97 80.48-16.28 79.95-17.6 79.05-18.52 78.14-19.43 76.92-19.92 75.7-20.41 74.34-20.41L74.34-20.41Q72.97-20.41 71.76-19.92 70.55-19.43 69.65-18.52 68.75-17.6 68.22-16.28 67.7-14.97 67.7-13.31L67.7-13.31Q67.7-11.72 68.22-10.4 68.75-9.08 69.65-8.15 70.55-7.23 71.76-6.71 72.97-6.2 74.34-6.2L74.34-6.2Q75.7-6.2 76.92-6.71 78.14-7.23 79.05-8.15 79.95-9.08 80.48-10.4 81-11.72 81-13.31ZM114.27-21.46L101.77-6.4Q102.17-6.27 102.56-6.24 102.95-6.2 103.34-6.2L103.34-6.2Q104.31-6.2 105.22-6.47 106.12-6.74 106.91-7.24 107.71-7.74 108.33-8.46 108.95-9.18 109.34-10.06L109.34-10.06 114.23-5.15Q113.3-3.83 112.09-2.78 110.88-1.73 109.48-1 108.07-0.27 106.52 0.11 104.97 0.49 103.34 0.49L103.34 0.49Q100.58 0.49 98.15-0.54 95.72-1.56 93.9-3.39 92.08-5.22 91.03-7.75 89.98-10.28 89.98-13.31L89.98-13.31Q89.98-16.41 91.03-18.97 92.08-21.53 93.9-23.34 95.72-25.15 98.15-26.15 100.58-27.15 103.34-27.15L103.34-27.15Q104.97-27.15 106.54-26.76 108.1-26.37 109.5-25.63 110.91-24.9 112.13-23.84 113.35-22.78 114.27-21.46L114.27-21.46ZM97.43-9.84L105.19-20.14Q104.73-20.31 104.28-20.36 103.83-20.41 103.34-20.41L103.34-20.41Q101.97-20.41 100.76-19.91 99.55-19.41 98.66-18.48 97.77-17.55 97.26-16.25 96.75-14.94 96.75-13.31L96.75-13.31Q96.75-12.94 96.78-12.48 96.82-12.01 96.9-11.54 96.99-11.06 97.11-10.62 97.23-10.18 97.43-9.84L97.43-9.84ZM124.28-14.4L124.28 0 117.62 0 117.62-26.15 119.23-26.15 121.43-23.05Q123.04-24.51 125.09-25.31 127.14-26.1 129.34-26.1L129.34-26.1 135.22-26.1 135.22-19.46 129.34-19.46Q128.29-19.46 127.36-19.07 126.43-18.68 125.75-17.99 125.06-17.31 124.67-16.38 124.28-15.45 124.28-14.4L124.28-14.4ZM167.03-28L160.02-28 160.02-13.99 167.03-13.99Q168.47-13.99 169.74-14.54 171.01-15.09 171.96-16.04 172.91-16.99 173.46-18.27 174.01-19.56 174.01-21L174.01-21Q174.01-22.44 173.46-23.72 172.91-25 171.96-25.95 171.01-26.9 169.74-27.45 168.47-28 167.03-28L167.03-28ZM160.02-7.01L160.02 0 153.01 0 153.01-35.01 167.03-35.01Q168.95-35.01 170.74-34.51 172.52-34.01 174.07-33.09 175.62-32.18 176.9-30.9 178.18-29.61 179.1-28.05 180.01-26.49 180.51-24.71 181.02-22.92 181.02-21L181.02-21Q181.02-19.19 180.56-17.48 180.11-15.77 179.27-14.23 178.43-12.7 177.21-11.4 175.99-10.11 174.47-9.16L174.47-9.16 178.35 0 170.91 0 167.86-7.06 160.02-7.01ZM192.76-33.25L192.76-33.25Q192.76-32.32 192.4-31.52 192.05-30.71 191.44-30.11 190.83-29.52 190.01-29.16 189.19-28.81 188.26-28.81L188.26-28.81Q187.34-28.81 186.52-29.16 185.7-29.52 185.1-30.11 184.5-30.71 184.15-31.52 183.8-32.32 183.8-33.25L183.8-33.25Q183.8-34.16 184.15-34.97 184.5-35.79 185.1-36.39 185.7-36.99 186.52-37.34 187.34-37.7 188.26-37.7L188.26-37.7Q189.19-37.7 190.01-37.34 190.83-36.99 191.44-36.39 192.05-35.79 192.4-34.97 192.76-34.16 192.76-33.25ZM191.61-26.15L191.61 0 184.89 0 184.89-26.15 191.61-26.15ZM221.95-36.55L221.95 0 220.34 0 217.75-3.59Q216.8-2.73 215.74-1.99 214.68-1.25 213.51-0.7 212.33-0.15 211.1 0.17 209.87 0.49 208.6 0.49L208.6 0.49Q205.84 0.49 203.41-0.55 200.98-1.59 199.16-3.43 197.34-5.27 196.29-7.8 195.24-10.33 195.24-13.31L195.24-13.31Q195.24-16.26 196.29-18.8 197.34-21.34 199.16-23.19 200.98-25.05 203.41-26.1 205.84-27.15 208.6-27.15L208.6-27.15Q209.48-27.15 210.42-27 211.36-26.86 212.25-26.53 213.14-26.2 213.92-25.66 214.7-25.12 215.24-24.34L215.24-24.34 215.24-36.55 221.95-36.55ZM215.24-13.31L215.24-13.31Q215.24-14.67 214.71-15.95 214.19-17.24 213.29-18.23 212.38-19.21 211.17-19.81 209.97-20.41 208.6-20.41L208.6-20.41Q207.23-20.41 206.02-19.92 204.81-19.43 203.92-18.52 203.03-17.6 202.52-16.28 202.01-14.97 202.01-13.31L202.01-13.31Q202.01-11.87 202.52-10.57 203.03-9.28 203.92-8.3 204.81-7.32 206.02-6.76 207.23-6.2 208.6-6.2L208.6-6.2Q209.97-6.2 211.17-6.8 212.38-7.4 213.29-8.39 214.19-9.38 214.71-10.66 215.24-11.94 215.24-13.31ZM249.93-21.46L237.43-6.4Q237.82-6.27 238.21-6.24 238.6-6.2 238.99-6.2L238.99-6.2Q239.97-6.2 240.87-6.47 241.77-6.74 242.57-7.24 243.36-7.74 243.98-8.46 244.61-9.18 245-10.06L245-10.06 249.88-5.15Q248.95-3.83 247.74-2.78 246.54-1.73 245.13-1 243.73-0.27 242.18 0.11 240.63 0.49 238.99 0.49L238.99 0.49Q236.23 0.49 233.8-0.54 231.37-1.56 229.56-3.39 227.74-5.22 226.69-7.75 225.64-10.28 225.64-13.31L225.64-13.31Q225.64-16.41 226.69-18.97 227.74-21.53 229.56-23.34 231.37-25.15 233.8-26.15 236.23-27.15 238.99-27.15L238.99-27.15Q240.63-27.15 242.19-26.76 243.75-26.37 245.16-25.63 246.56-24.9 247.78-23.84 249-22.78 249.93-21.46L249.93-21.46ZM233.08-9.84L240.85-20.14Q240.38-20.31 239.93-20.36 239.48-20.41 238.99-20.41L238.99-20.41Q237.62-20.41 236.42-19.91 235.21-19.41 234.32-18.48 233.42-17.55 232.91-16.25 232.4-14.94 232.4-13.31L232.4-13.31Q232.4-12.94 232.44-12.48 232.47-12.01 232.56-11.54 232.64-11.06 232.77-10.62 232.89-10.18 233.08-9.84L233.08-9.84Z" opacity="1" transform="matrix(1,0,0,1,0,0)" fill="#fe0039" class="undefined-text-0" data-fill-palette-color="primary" id="text-0"></path></svg></g></svg></g></svg></g></svg></g></svg></g></svg></g></svg></g></svg></g></svg><rect width="395.52" height="247.2" fill="none" stroke="none" visibility="hidden"></rect></g></svg></g></svg>